#N canvas 749 274 450 300 10;
#X msg -158 30 devices;
#X floatatom -120 111 5 0 0 0 - - -;
#X obj -120 78 comport 2 9600;
#X obj -117 177 osc~;
#X obj -116 212 dac~;
#X obj -120 140 * 10;
#X msg -94 32 open 1;
#X msg -37 33 close 1;
#X obj -2 151 print;
#X obj 113 114 line;
#X connect 0 0 2 0;
#X connect 1 0 5 0;
#X connect 2 0 1 0;
#X connect 2 0 8 0;
#X connect 3 0 4 0;
#X connect 3 0 4 1;
#X connect 5 0 3 0;
#X connect 6 0 2 0;
#X connect 7 0 2 0;
