#N canvas 106 35 1331 637 10;
#X obj 41 111 o.io.slipserial;
#X msg 45 60 devicename /dev/tty.usbmodem1413201 \, baud 9600 \, pollintervall
4 \, verbose 1;
#X obj 45 21 loadbang;
#X obj 41 132 mrpeach/unpackOSC;
#X obj 44 624 dac~, f 143;
#X msg 356 80 close;
#N canvas 0 23 450 300 lineOsc 0;
#X obj 128 213 osc~;
#X obj 128 115 line;
#X floatatom 128 60 5 0 0 0 - - -;
#X floatatom 128 179 5 0 0 0 - - -;
#X msg 128 89 \$1 500;
#X obj 128 36 inlet freq;
#X obj 128 237 outlet~;
#X connect 0 0 6 0;
#X connect 1 0 3 0;
#X connect 2 0 4 0;
#X connect 3 0 0 0;
#X connect 4 0 1 0;
#X connect 5 0 2 0;
#X restore 42 352 pd lineOsc;
#N canvas 0 23 450 300 lineOsc 0;
#X obj 128 213 osc~;
#X obj 128 115 line;
#X floatatom 128 60 5 0 0 0 - - -;
#X floatatom 128 179 5 0 0 0 - - -;
#X msg 128 89 \$1 500;
#X obj 128 36 inlet freq;
#X obj 128 237 outlet~;
#X connect 0 0 6 0;
#X connect 1 0 3 0;
#X connect 2 0 4 0;
#X connect 3 0 0 0;
#X connect 4 0 1 0;
#X connect 5 0 2 0;
#X restore 122 352 pd lineOsc;
#N canvas 0 23 450 300 lineOsc 0;
#X obj 128 213 osc~;
#X obj 128 115 line;
#X floatatom 128 60 5 0 0 0 - - -;
#X floatatom 128 179 5 0 0 0 - - -;
#X msg 128 89 \$1 500;
#X obj 128 36 inlet freq;
#X obj 128 237 outlet~;
#X connect 0 0 6 0;
#X connect 1 0 3 0;
#X connect 2 0 4 0;
#X connect 3 0 0 0;
#X connect 4 0 1 0;
#X connect 5 0 2 0;
#X restore 197 352 pd lineOsc;
#N canvas 0 23 450 300 lineOsc 0;
#X obj 128 213 osc~;
#X obj 128 115 line;
#X floatatom 128 60 5 0 0 0 - - -;
#X floatatom 128 179 5 0 0 0 - - -;
#X msg 128 89 \$1 500;
#X obj 128 36 inlet freq;
#X obj 128 237 outlet~;
#X connect 0 0 6 0;
#X connect 1 0 3 0;
#X connect 2 0 4 0;
#X connect 3 0 0 0;
#X connect 4 0 1 0;
#X connect 5 0 2 0;
#X restore 274 352 pd lineOsc;
#N canvas 0 23 450 300 lineOsc 0;
#X obj 128 213 osc~;
#X obj 128 115 line;
#X floatatom 128 60 5 0 0 0 - - -;
#X floatatom 128 179 5 0 0 0 - - -;
#X msg 128 89 \$1 500;
#X obj 128 36 inlet freq;
#X obj 128 237 outlet~;
#X connect 0 0 6 0;
#X connect 1 0 3 0;
#X connect 2 0 4 0;
#X connect 3 0 0 0;
#X connect 4 0 1 0;
#X connect 5 0 2 0;
#X restore 352 352 pd lineOsc;
#N canvas 0 23 450 300 lineOsc 0;
#X obj 128 213 osc~;
#X obj 128 115 line;
#X floatatom 128 60 5 0 0 0 - - -;
#X floatatom 128 179 5 0 0 0 - - -;
#X msg 128 89 \$1 500;
#X obj 128 36 inlet freq;
#X obj 128 237 outlet~;
#X connect 0 0 6 0;
#X connect 1 0 3 0;
#X connect 2 0 4 0;
#X connect 3 0 0 0;
#X connect 4 0 1 0;
#X connect 5 0 2 0;
#X restore 428 352 pd lineOsc;
#N canvas 0 23 450 300 lineOsc 0;
#X obj 128 213 osc~;
#X obj 128 115 line;
#X floatatom 128 60 5 0 0 0 - - -;
#X floatatom 128 179 5 0 0 0 - - -;
#X msg 128 89 \$1 500;
#X obj 128 36 inlet freq;
#X obj 128 237 outlet~;
#X connect 0 0 6 0;
#X connect 1 0 3 0;
#X connect 2 0 4 0;
#X connect 3 0 0 0;
#X connect 4 0 1 0;
#X connect 5 0 2 0;
#X restore 501 352 pd lineOsc;
#N canvas 0 23 450 300 lineOsc 0;
#X obj 128 213 osc~;
#X obj 128 115 line;
#X floatatom 128 60 5 0 0 0 - - -;
#X floatatom 128 179 5 0 0 0 - - -;
#X msg 128 89 \$1 500;
#X obj 128 36 inlet freq;
#X obj 128 237 outlet~;
#X connect 0 0 6 0;
#X connect 1 0 3 0;
#X connect 2 0 4 0;
#X connect 3 0 0 0;
#X connect 4 0 1 0;
#X connect 5 0 2 0;
#X restore 581 352 pd lineOsc;
#N canvas 0 23 450 300 lineOsc 0;
#X obj 128 213 osc~;
#X obj 128 115 line;
#X floatatom 128 60 5 0 0 0 - - -;
#X floatatom 128 179 5 0 0 0 - - -;
#X msg 128 89 \$1 500;
#X obj 128 36 inlet freq;
#X obj 128 237 outlet~;
#X connect 0 0 6 0;
#X connect 1 0 3 0;
#X connect 2 0 4 0;
#X connect 3 0 0 0;
#X connect 4 0 1 0;
#X connect 5 0 2 0;
#X restore 656 352 pd lineOsc;
#N canvas 0 23 450 300 lineOsc 0;
#X obj 128 213 osc~;
#X obj 128 115 line;
#X floatatom 128 60 5 0 0 0 - - -;
#X floatatom 128 179 5 0 0 0 - - -;
#X msg 128 89 \$1 500;
#X obj 128 36 inlet freq;
#X obj 128 237 outlet~;
#X connect 0 0 6 0;
#X connect 1 0 3 0;
#X connect 2 0 4 0;
#X connect 3 0 0 0;
#X connect 4 0 1 0;
#X connect 5 0 2 0;
#X restore 733 352 pd lineOsc;
#N canvas 0 23 450 300 lineOsc 0;
#X obj 128 213 osc~;
#X obj 128 115 line;
#X floatatom 128 60 5 0 0 0 - - -;
#X floatatom 128 179 5 0 0 0 - - -;
#X msg 128 89 \$1 500;
#X obj 128 36 inlet freq;
#X obj 128 237 outlet~;
#X connect 0 0 6 0;
#X connect 1 0 3 0;
#X connect 2 0 4 0;
#X connect 3 0 0 0;
#X connect 4 0 1 0;
#X connect 5 0 2 0;
#X restore 811 352 pd lineOsc;
#N canvas 0 23 450 300 lineOsc 0;
#X obj 128 213 osc~;
#X obj 128 115 line;
#X floatatom 128 60 5 0 0 0 - - -;
#X floatatom 128 179 5 0 0 0 - - -;
#X msg 128 89 \$1 500;
#X obj 128 36 inlet freq;
#X obj 128 237 outlet~;
#X connect 0 0 6 0;
#X connect 1 0 3 0;
#X connect 2 0 4 0;
#X connect 3 0 0 0;
#X connect 4 0 1 0;
#X connect 5 0 2 0;
#X restore 887 352 pd lineOsc;
#X floatatom 42 327 5 0 0 0 - - -;
#X floatatom 123 324 5 0 0 0 - - -;
#X floatatom 196 324 5 0 0 0 - - -;
#X floatatom 271 324 5 0 0 0 - - -;
#X floatatom 353 325 5 0 0 0 - - -;
#X floatatom 429 324 5 0 0 0 - - -;
#X floatatom 500 325 5 0 0 0 - - -;
#X floatatom 582 324 5 0 0 0 - - -;
#X floatatom 656 324 5 0 0 0 - - -;
#X floatatom 733 324 5 0 0 0 - - -;
#X floatatom 812 322 5 0 0 0 - - -;
#X floatatom 889 324 5 0 0 0 - - -;
#X obj 152 376 tgl 15 0 empty empty empty 17 7 0 10 -262144 -1 -1 0
1;
#X obj 122 391 *~;
#X obj 72 375 tgl 15 0 empty empty empty 17 7 0 10 -262144 -1 -1 0
1;
#X obj 42 390 *~;
#X obj 308 375 tgl 15 0 empty empty empty 17 7 0 10 -262144 -1 -1 0
1;
#X obj 278 390 *~;
#X obj 228 374 tgl 15 0 empty empty empty 17 7 0 10 -262144 -1 -1 0
1;
#X obj 198 389 *~;
#X obj 462 375 tgl 15 0 empty empty empty 17 7 0 10 -262144 -1 -1 0
1;
#X obj 432 390 *~;
#X obj 382 374 tgl 15 0 empty empty empty 17 7 0 10 -262144 -1 -1 0
1;
#X obj 352 389 *~;
#X obj 619 377 tgl 15 0 empty empty empty 17 7 0 10 -262144 -1 -1 0
1;
#X obj 589 392 *~;
#X obj 539 376 tgl 15 0 empty empty empty 17 7 0 10 -262144 -1 -1 0
1;
#X obj 509 391 *~;
#X obj 775 376 tgl 15 0 empty empty empty 17 7 0 10 -262144 -1 -1 0
1;
#X obj 745 391 *~;
#X obj 695 375 tgl 15 0 empty empty empty 17 7 0 10 -262144 -1 -1 0
1;
#X obj 665 390 *~;
#X obj 929 376 tgl 15 0 empty empty empty 17 7 0 10 -262144 -1 -1 0
1;
#X obj 899 391 *~;
#X obj 849 375 tgl 15 0 empty empty empty 17 7 0 10 -262144 -1 -1 0
1;
#X obj 819 390 *~;
#X text 644 20 Patch receiving osc messages from companion arduino
sketch;
#X text 447 20 MPR121 CAPACITIVE DATA TO OSC;
#N canvas 82 60 1358 300 touchData 0;
#X obj 41 86 mrpeach/routeOSC /touch;
#X obj 40 42 inlet OSCMsg;
#X obj 41 136 mrpeach/routeOSC /0 /1 /2 /3 /4 /5 /6 /7 /8 /9 /10 /11
/12, f 202;
#X obj 1329 102 outlet rest;
#X obj 134 208 outlet el1;
#X obj 227 208 outlet el2;
#X obj 320 208 outlet el3;
#X obj 413 208 outlet el4;
#X obj 506 208 outlet el5;
#X obj 42 208 outlet el0;
#X obj 599 208 outlet el6;
#X obj 692 208 outlet el7;
#X obj 785 208 outlet el8;
#X obj 878 208 outlet el9;
#X obj 971 208 outlet el10;
#X obj 1064 208 outlet el11;
#X obj 1157 208 outlet el12;
#X obj 1250 208 outlet dump;
#X connect 0 0 2 0;
#X connect 0 1 3 0;
#X connect 1 0 0 0;
#X connect 2 0 9 0;
#X connect 2 1 4 0;
#X connect 2 2 5 0;
#X connect 2 3 6 0;
#X connect 2 4 7 0;
#X connect 2 5 8 0;
#X connect 2 6 10 0;
#X connect 2 7 11 0;
#X connect 2 8 12 0;
#X connect 2 9 13 0;
#X connect 2 10 14 0;
#X connect 2 11 15 0;
#X connect 2 12 16 0;
#X connect 2 13 17 0;
#X restore 364 143 pd touchData;
#X f 35;
#N canvas 0 23 1440 855 touchThresholdData 0;
#X obj 40 42 inlet OSCMsg;
#X obj 41 136 mrpeach/routeOSC /0 /1 /2 /3 /4 /5 /6 /7 /8 /9 /10 /11
/12, f 202;
#X obj 1336 102 outlet rest;
#X obj 134 208 outlet el1;
#X obj 227 208 outlet el2;
#X obj 320 208 outlet el3;
#X obj 413 208 outlet el4;
#X obj 506 208 outlet el5;
#X obj 42 208 outlet el0;
#X obj 599 208 outlet el6;
#X obj 692 208 outlet el7;
#X obj 785 208 outlet el8;
#X obj 878 208 outlet el9;
#X obj 971 208 outlet el10;
#X obj 1064 208 outlet el11;
#X obj 1157 208 outlet el12;
#X obj 1250 208 outlet dump;
#X obj 41 86 mrpeach/routeOSC /tths, f 23;
#X connect 0 0 17 0;
#X connect 1 0 8 0;
#X connect 1 1 3 0;
#X connect 1 2 4 0;
#X connect 1 3 5 0;
#X connect 1 4 6 0;
#X connect 1 5 7 0;
#X connect 1 6 9 0;
#X connect 1 7 10 0;
#X connect 1 8 11 0;
#X connect 1 9 12 0;
#X connect 1 10 13 0;
#X connect 1 11 14 0;
#X connect 1 12 15 0;
#X connect 1 13 16 0;
#X connect 17 0 1 0;
#X connect 17 1 2 0;
#X restore 363 167 pd touchThresholdData;
#X f 35;
#N canvas 0 23 1440 855 releaseThresholdData 0;
#X obj 40 42 inlet OSCMsg;
#X obj 41 136 mrpeach/routeOSC /0 /1 /2 /3 /4 /5 /6 /7 /8 /9 /10 /11
/12, f 202;
#X obj 1336 102 outlet rest;
#X obj 134 208 outlet el1;
#X obj 227 208 outlet el2;
#X obj 320 208 outlet el3;
#X obj 413 208 outlet el4;
#X obj 506 208 outlet el5;
#X obj 42 208 outlet el0;
#X obj 599 208 outlet el6;
#X obj 692 208 outlet el7;
#X obj 785 208 outlet el8;
#X obj 878 208 outlet el9;
#X obj 971 208 outlet el10;
#X obj 1064 208 outlet el11;
#X obj 1157 208 outlet el12;
#X obj 1250 208 outlet dump;
#X obj 41 86 mrpeach/routeOSC /rths, f 23;
#X connect 0 0 17 0;
#X connect 1 0 8 0;
#X connect 1 1 3 0;
#X connect 1 2 4 0;
#X connect 1 3 5 0;
#X connect 1 4 6 0;
#X connect 1 5 7 0;
#X connect 1 6 9 0;
#X connect 1 7 10 0;
#X connect 1 8 11 0;
#X connect 1 9 12 0;
#X connect 1 10 13 0;
#X connect 1 11 14 0;
#X connect 1 12 15 0;
#X connect 1 13 16 0;
#X connect 17 0 1 0;
#X connect 17 1 2 0;
#X restore 363 191 pd releaseThresholdData;
#X f 35;
#N canvas 0 23 1440 855 filteredData 0;
#X obj 40 42 inlet OSCMsg;
#X obj 42 136 mrpeach/routeOSC /0 /1 /2 /3 /4 /5 /6 /7 /8 /9 /10 /11
/12, f 202;
#X obj 1336 102 outlet rest;
#X obj 134 208 outlet el1;
#X obj 227 208 outlet el2;
#X obj 320 208 outlet el3;
#X obj 413 208 outlet el4;
#X obj 506 208 outlet el5;
#X obj 42 208 outlet el0;
#X obj 599 208 outlet el6;
#X obj 692 208 outlet el7;
#X obj 785 208 outlet el8;
#X obj 878 208 outlet el9;
#X obj 971 208 outlet el10;
#X obj 1064 208 outlet el11;
#X obj 1157 208 outlet el12;
#X obj 1250 208 outlet dump;
#X obj 41 86 mrpeach/routeOSC /ftdat;
#X connect 0 0 17 0;
#X connect 1 0 8 0;
#X connect 1 1 3 0;
#X connect 1 2 4 0;
#X connect 1 3 5 0;
#X connect 1 4 6 0;
#X connect 1 5 7 0;
#X connect 1 6 9 0;
#X connect 1 7 10 0;
#X connect 1 8 11 0;
#X connect 1 9 12 0;
#X connect 1 10 13 0;
#X connect 1 11 14 0;
#X connect 1 12 15 0;
#X connect 1 13 16 0;
#X connect 17 0 1 0;
#X connect 17 1 2 0;
#X restore 361 211 pd filteredData;
#X f 67;
#N canvas 0 23 1440 855 baselineData 0;
#X obj 40 42 inlet OSCMsg;
#X obj 41 136 mrpeach/routeOSC /0 /1 /2 /3 /4 /5 /6 /7 /8 /9 /10 /11
/12, f 202;
#X obj 1336 102 outlet rest;
#X obj 134 208 outlet el1;
#X obj 227 208 outlet el2;
#X obj 320 208 outlet el3;
#X obj 413 208 outlet el4;
#X obj 506 208 outlet el5;
#X obj 42 208 outlet el0;
#X obj 599 208 outlet el6;
#X obj 692 208 outlet el7;
#X obj 785 208 outlet el8;
#X obj 878 208 outlet el9;
#X obj 971 208 outlet el10;
#X obj 1064 208 outlet el11;
#X obj 1157 208 outlet el12;
#X obj 1250 208 outlet dump;
#X obj 41 86 mrpeach/routeOSC /bval;
#X connect 0 0 17 0;
#X connect 1 0 8 0;
#X connect 1 1 3 0;
#X connect 1 2 4 0;
#X connect 1 3 5 0;
#X connect 1 4 6 0;
#X connect 1 5 7 0;
#X connect 1 6 9 0;
#X connect 1 7 10 0;
#X connect 1 8 11 0;
#X connect 1 9 12 0;
#X connect 1 10 13 0;
#X connect 1 11 14 0;
#X connect 1 12 15 0;
#X connect 1 13 16 0;
#X connect 17 0 1 0;
#X connect 17 1 2 0;
#X restore 865 183 pd baselineData;
#X f 35;
#N canvas 0 23 450 300 lineOsc 0;
#X obj 128 213 osc~;
#X obj 128 115 line;
#X floatatom 128 60 5 0 0 0 - - -;
#X floatatom 128 179 5 0 0 0 - - -;
#X msg 128 89 \$1 500;
#X obj 128 36 inlet freq;
#X obj 128 237 outlet~;
#X connect 0 0 6 0;
#X connect 1 0 3 0;
#X connect 2 0 4 0;
#X connect 3 0 0 0;
#X connect 4 0 1 0;
#X connect 5 0 2 0;
#X restore 1016 340 pd lineOsc;
#X floatatom 1018 312 5 0 0 0 - - -;
#X obj 1058 364 tgl 15 0 empty empty empty 17 7 0 10 -262144 -1 -1
0 1;
#X obj 1028 379 *~;
#X connect 0 0 3 0;
#X connect 1 0 0 1;
#X connect 2 0 1 0;
#X connect 3 0 56 0;
#X connect 5 0 0 1;
#X connect 6 0 33 0;
#X connect 7 0 31 0;
#X connect 8 0 37 0;
#X connect 9 0 35 0;
#X connect 10 0 41 0;
#X connect 11 0 39 0;
#X connect 12 0 45 0;
#X connect 13 0 43 0;
#X connect 14 0 49 0;
#X connect 15 0 47 0;
#X connect 16 0 53 0;
#X connect 17 0 51 0;
#X connect 18 0 6 0;
#X connect 19 0 7 0;
#X connect 20 0 8 0;
#X connect 21 0 9 0;
#X connect 22 0 10 0;
#X connect 23 0 11 0;
#X connect 24 0 12 0;
#X connect 25 0 13 0;
#X connect 26 0 14 0;
#X connect 27 0 15 0;
#X connect 28 0 16 0;
#X connect 29 0 17 0;
#X connect 30 0 31 1;
#X connect 31 0 4 1;
#X connect 32 0 33 1;
#X connect 33 0 4 0;
#X connect 34 0 35 1;
#X connect 35 0 4 1;
#X connect 36 0 37 1;
#X connect 37 0 4 0;
#X connect 38 0 39 1;
#X connect 39 0 4 1;
#X connect 40 0 41 1;
#X connect 41 0 4 0;
#X connect 42 0 43 1;
#X connect 43 0 4 1;
#X connect 44 0 45 1;
#X connect 45 0 4 0;
#X connect 46 0 47 1;
#X connect 47 0 4 1;
#X connect 48 0 49 1;
#X connect 49 0 4 0;
#X connect 50 0 51 1;
#X connect 51 0 4 1;
#X connect 52 0 53 1;
#X connect 53 0 4 0;
#X connect 56 14 57 0;
#X connect 57 14 58 0;
#X connect 58 14 59 0;
#X connect 59 0 18 0;
#X connect 59 1 19 0;
#X connect 59 2 20 0;
#X connect 59 3 21 0;
#X connect 59 4 22 0;
#X connect 59 5 23 0;
#X connect 59 6 24 0;
#X connect 59 7 25 0;
#X connect 59 8 26 0;
#X connect 59 9 27 0;
#X connect 59 10 28 0;
#X connect 59 11 29 0;
#X connect 59 12 62 0;
#X connect 59 14 60 0;
#X connect 61 0 64 0;
#X connect 62 0 61 0;
#X connect 63 0 64 1;
