#N canvas 323 23 1440 855 10;
#X obj 41 111 o.io.slipserial;
#X obj 224 157 print;
#X obj 224 137 spigot;
#X obj 258 114 tgl 15 0 empty empty empty 17 7 0 10 -262144 -1 -1 0
1;
#X msg 45 60 devicename /dev/tty.usbmodem1413201 \, baud 9600 \, pollintervall
4 \, verbose 1;
#X obj 45 21 loadbang;
#X obj 41 132 mrpeach/unpackOSC;
#X obj 44 624 dac~, f 143;
#X msg 356 78 close;
#X obj 41 177 mrpeach/routeOSC /t;
#N canvas 0 23 450 300 lineOsc 0;
#X obj 128 213 osc~;
#X obj 128 115 line;
#X floatatom 128 60 5 0 0 0 - - -;
#X floatatom 128 179 5 0 0 0 - - -;
#X msg 128 89 \$1 500;
#X obj 128 36 inlet freq;
#X obj 128 237 outlet~;
#X connect 0 0 6 0;
#X connect 1 0 3 0;
#X connect 2 0 4 0;
#X connect 3 0 0 0;
#X connect 4 0 1 0;
#X connect 5 0 2 0;
#X restore 42 352 pd lineOsc;
#N canvas 0 23 450 300 lineOsc 0;
#X obj 128 213 osc~;
#X obj 128 115 line;
#X floatatom 128 60 5 0 0 0 - - -;
#X floatatom 128 179 5 0 0 0 - - -;
#X msg 128 89 \$1 500;
#X obj 128 36 inlet freq;
#X obj 128 237 outlet~;
#X connect 0 0 6 0;
#X connect 1 0 3 0;
#X connect 2 0 4 0;
#X connect 3 0 0 0;
#X connect 4 0 1 0;
#X connect 5 0 2 0;
#X restore 122 352 pd lineOsc;
#N canvas 0 23 450 300 lineOsc 0;
#X obj 128 213 osc~;
#X obj 128 115 line;
#X floatatom 128 60 5 0 0 0 - - -;
#X floatatom 128 179 5 0 0 0 - - -;
#X msg 128 89 \$1 500;
#X obj 128 36 inlet freq;
#X obj 128 237 outlet~;
#X connect 0 0 6 0;
#X connect 1 0 3 0;
#X connect 2 0 4 0;
#X connect 3 0 0 0;
#X connect 4 0 1 0;
#X connect 5 0 2 0;
#X restore 197 352 pd lineOsc;
#N canvas 0 23 450 300 lineOsc 0;
#X obj 128 213 osc~;
#X obj 128 115 line;
#X floatatom 128 60 5 0 0 0 - - -;
#X floatatom 128 179 5 0 0 0 - - -;
#X msg 128 89 \$1 500;
#X obj 128 36 inlet freq;
#X obj 128 237 outlet~;
#X connect 0 0 6 0;
#X connect 1 0 3 0;
#X connect 2 0 4 0;
#X connect 3 0 0 0;
#X connect 4 0 1 0;
#X connect 5 0 2 0;
#X restore 274 352 pd lineOsc;
#N canvas 0 23 450 300 lineOsc 0;
#X obj 128 213 osc~;
#X obj 128 115 line;
#X floatatom 128 60 5 0 0 0 - - -;
#X floatatom 128 179 5 0 0 0 - - -;
#X msg 128 89 \$1 500;
#X obj 128 36 inlet freq;
#X obj 128 237 outlet~;
#X connect 0 0 6 0;
#X connect 1 0 3 0;
#X connect 2 0 4 0;
#X connect 3 0 0 0;
#X connect 4 0 1 0;
#X connect 5 0 2 0;
#X restore 352 352 pd lineOsc;
#N canvas 0 23 450 300 lineOsc 0;
#X obj 128 213 osc~;
#X obj 128 115 line;
#X floatatom 128 60 5 0 0 0 - - -;
#X floatatom 128 179 5 0 0 0 - - -;
#X msg 128 89 \$1 500;
#X obj 128 36 inlet freq;
#X obj 128 237 outlet~;
#X connect 0 0 6 0;
#X connect 1 0 3 0;
#X connect 2 0 4 0;
#X connect 3 0 0 0;
#X connect 4 0 1 0;
#X connect 5 0 2 0;
#X restore 428 352 pd lineOsc;
#N canvas 0 23 450 300 lineOsc 0;
#X obj 128 213 osc~;
#X obj 128 115 line;
#X floatatom 128 60 5 0 0 0 - - -;
#X floatatom 128 179 5 0 0 0 - - -;
#X msg 128 89 \$1 500;
#X obj 128 36 inlet freq;
#X obj 128 237 outlet~;
#X connect 0 0 6 0;
#X connect 1 0 3 0;
#X connect 2 0 4 0;
#X connect 3 0 0 0;
#X connect 4 0 1 0;
#X connect 5 0 2 0;
#X restore 501 352 pd lineOsc;
#N canvas 0 23 450 300 lineOsc 0;
#X obj 128 213 osc~;
#X obj 128 115 line;
#X floatatom 128 60 5 0 0 0 - - -;
#X floatatom 128 179 5 0 0 0 - - -;
#X msg 128 89 \$1 500;
#X obj 128 36 inlet freq;
#X obj 128 237 outlet~;
#X connect 0 0 6 0;
#X connect 1 0 3 0;
#X connect 2 0 4 0;
#X connect 3 0 0 0;
#X connect 4 0 1 0;
#X connect 5 0 2 0;
#X restore 581 352 pd lineOsc;
#N canvas 0 23 450 300 lineOsc 0;
#X obj 128 213 osc~;
#X obj 128 115 line;
#X floatatom 128 60 5 0 0 0 - - -;
#X floatatom 128 179 5 0 0 0 - - -;
#X msg 128 89 \$1 500;
#X obj 128 36 inlet freq;
#X obj 128 237 outlet~;
#X connect 0 0 6 0;
#X connect 1 0 3 0;
#X connect 2 0 4 0;
#X connect 3 0 0 0;
#X connect 4 0 1 0;
#X connect 5 0 2 0;
#X restore 656 352 pd lineOsc;
#N canvas 0 23 450 300 lineOsc 0;
#X obj 128 213 osc~;
#X obj 128 115 line;
#X floatatom 128 60 5 0 0 0 - - -;
#X floatatom 128 179 5 0 0 0 - - -;
#X msg 128 89 \$1 500;
#X obj 128 36 inlet freq;
#X obj 128 237 outlet~;
#X connect 0 0 6 0;
#X connect 1 0 3 0;
#X connect 2 0 4 0;
#X connect 3 0 0 0;
#X connect 4 0 1 0;
#X connect 5 0 2 0;
#X restore 733 352 pd lineOsc;
#N canvas 0 23 450 300 lineOsc 0;
#X obj 128 213 osc~;
#X obj 128 115 line;
#X floatatom 128 60 5 0 0 0 - - -;
#X floatatom 128 179 5 0 0 0 - - -;
#X msg 128 89 \$1 500;
#X obj 128 36 inlet freq;
#X obj 128 237 outlet~;
#X connect 0 0 6 0;
#X connect 1 0 3 0;
#X connect 2 0 4 0;
#X connect 3 0 0 0;
#X connect 4 0 1 0;
#X connect 5 0 2 0;
#X restore 811 352 pd lineOsc;
#N canvas 0 23 450 300 lineOsc 0;
#X obj 128 213 osc~;
#X obj 128 115 line;
#X floatatom 128 60 5 0 0 0 - - -;
#X floatatom 128 179 5 0 0 0 - - -;
#X msg 128 89 \$1 500;
#X obj 128 36 inlet freq;
#X obj 128 237 outlet~;
#X connect 0 0 6 0;
#X connect 1 0 3 0;
#X connect 2 0 4 0;
#X connect 3 0 0 0;
#X connect 4 0 1 0;
#X connect 5 0 2 0;
#X restore 887 352 pd lineOsc;
#X floatatom 73 333 5 0 0 0 - - -;
#X floatatom 153 334 5 0 0 0 - - -;
#X floatatom 226 334 5 0 0 0 - - -;
#X floatatom 301 334 5 0 0 0 - - -;
#X floatatom 384 335 5 0 0 0 - - -;
#X floatatom 459 334 5 0 0 0 - - -;
#X floatatom 530 334 5 0 0 0 - - -;
#X floatatom 612 334 5 0 0 0 - - -;
#X floatatom 686 334 5 0 0 0 - - -;
#X floatatom 763 334 5 0 0 0 - - -;
#X floatatom 842 332 5 0 0 0 - - -;
#X floatatom 918 334 5 0 0 0 - - -;
#X obj 42 270 mrpeach/routeOSC /0 /1 /2 /3 /4 /5 /6 /7 /8 /9 /10 /11
, f 151;
#X obj 152 376 tgl 15 0 empty empty empty 17 7 0 10 -262144 -1 -1 1
1;
#X obj 122 391 *~;
#X obj 72 375 tgl 15 0 empty empty empty 17 7 0 10 -262144 -1 -1 1
1;
#X obj 42 390 *~;
#X obj 308 375 tgl 15 0 empty empty empty 17 7 0 10 -262144 -1 -1 1
1;
#X obj 278 390 *~;
#X obj 228 374 tgl 15 0 empty empty empty 17 7 0 10 -262144 -1 -1 1
1;
#X obj 198 389 *~;
#X obj 462 375 tgl 15 0 empty empty empty 17 7 0 10 -262144 -1 -1 1
1;
#X obj 432 390 *~;
#X obj 382 374 tgl 15 0 empty empty empty 17 7 0 10 -262144 -1 -1 1
1;
#X obj 352 389 *~;
#X obj 619 377 tgl 15 0 empty empty empty 17 7 0 10 -262144 -1 -1 1
1;
#X obj 589 392 *~;
#X obj 539 376 tgl 15 0 empty empty empty 17 7 0 10 -262144 -1 -1 1
1;
#X obj 509 391 *~;
#X obj 775 376 tgl 15 0 empty empty empty 17 7 0 10 -262144 -1 -1 1
1;
#X obj 745 391 *~;
#X obj 695 375 tgl 15 0 empty empty empty 17 7 0 10 -262144 -1 -1 1
1;
#X obj 665 390 *~;
#X obj 929 376 tgl 15 0 empty empty empty 17 7 0 10 -262144 -1 -1 1
1;
#X obj 899 391 *~;
#X obj 849 375 tgl 15 0 empty empty empty 17 7 0 10 -262144 -1 -1 1
1;
#X obj 819 390 *~;
#X text 441 161 Patch receiving osc messages from companion arduino
sketch;
#X text 447 20 MPR121 CAPACITIVE DATA TO OSC;
#X connect 0 0 2 0;
#X connect 0 0 6 0;
#X connect 2 0 1 0;
#X connect 3 0 2 1;
#X connect 4 0 0 1;
#X connect 5 0 4 0;
#X connect 6 0 9 0;
#X connect 8 0 0 1;
#X connect 9 0 34 0;
#X connect 10 0 38 0;
#X connect 11 0 36 0;
#X connect 12 0 42 0;
#X connect 13 0 40 0;
#X connect 14 0 46 0;
#X connect 15 0 44 0;
#X connect 16 0 50 0;
#X connect 17 0 48 0;
#X connect 18 0 54 0;
#X connect 19 0 52 0;
#X connect 20 0 58 0;
#X connect 21 0 56 0;
#X connect 34 0 10 0;
#X connect 34 0 22 0;
#X connect 34 1 11 0;
#X connect 34 1 23 0;
#X connect 34 2 12 0;
#X connect 34 2 24 0;
#X connect 34 3 13 0;
#X connect 34 3 25 0;
#X connect 34 4 14 0;
#X connect 34 4 26 0;
#X connect 34 5 15 0;
#X connect 34 5 27 0;
#X connect 34 6 16 0;
#X connect 34 6 28 0;
#X connect 34 7 17 0;
#X connect 34 7 29 0;
#X connect 34 8 18 0;
#X connect 34 8 30 0;
#X connect 34 9 19 0;
#X connect 34 9 31 0;
#X connect 34 10 20 0;
#X connect 34 10 32 0;
#X connect 34 11 21 0;
#X connect 34 11 33 0;
#X connect 35 0 36 1;
#X connect 36 0 7 1;
#X connect 37 0 38 1;
#X connect 38 0 7 0;
#X connect 39 0 40 1;
#X connect 40 0 7 1;
#X connect 41 0 42 1;
#X connect 42 0 7 0;
#X connect 43 0 44 1;
#X connect 44 0 7 1;
#X connect 45 0 46 1;
#X connect 46 0 7 0;
#X connect 47 0 48 1;
#X connect 48 0 7 1;
#X connect 49 0 50 1;
#X connect 50 0 7 0;
#X connect 51 0 52 1;
#X connect 52 0 7 1;
#X connect 53 0 54 1;
#X connect 54 0 7 0;
#X connect 55 0 56 1;
#X connect 56 0 7 1;
#X connect 57 0 58 1;
#X connect 58 0 7 0;
