#N canvas 0 0 1440 900 10;
#X obj 333 117 o.io.slipserial;
#X obj 267 230 print;
#X obj 267 210 spigot;
#X obj 301 187 tgl 15 0 empty empty empty 17 7 0 10 -262144 -1 -1 0
1;
#X text 762 229 - comport;
#X text 763 213 - cyclone;
#X text 763 197 - mrpeach osc slipenc and slipdec;
#X text 650 153 This patch depends on several third party externals
available in PD-extended (deprecated?) \, Purr \, or through deken
plugin (Help -> Find externals):;
#X msg 388 73 devicename /dev/tty.usbmodem1413201 \, baud 9600 \, pollintervall
4 \, verbose 1;
#X obj 388 34 loadbang;
#X obj 333 138 mrpeach/unpackOSC;
#X obj 435 657 dac~, f 93;
#X msg 494 147 close;
#X obj 337 178 mrpeach/routeOSC /t;
#N canvas 0 23 450 300 lineOsc 0;
#X obj 128 213 osc~;
#X obj 128 115 line;
#X floatatom 128 60 5 0 0 0 - - -;
#X floatatom 128 179 5 0 0 0 - - -;
#X msg 128 89 \$1 500;
#X obj 128 36 inlet freq;
#X obj 128 237 outlet~;
#X connect 0 0 6 0;
#X connect 1 0 3 0;
#X connect 2 0 4 0;
#X connect 3 0 0 0;
#X connect 4 0 1 0;
#X connect 5 0 2 0;
#X restore 218 361 pd lineOsc;
#N canvas 0 23 450 300 lineOsc 0;
#X obj 128 213 osc~;
#X obj 128 115 line;
#X floatatom 128 60 5 0 0 0 - - -;
#X floatatom 128 179 5 0 0 0 - - -;
#X msg 128 89 \$1 500;
#X obj 128 36 inlet freq;
#X obj 128 237 outlet~;
#X connect 0 0 6 0;
#X connect 1 0 3 0;
#X connect 2 0 4 0;
#X connect 3 0 0 0;
#X connect 4 0 1 0;
#X connect 5 0 2 0;
#X restore 298 361 pd lineOsc;
#N canvas 0 23 450 300 lineOsc 0;
#X obj 128 213 osc~;
#X obj 128 115 line;
#X floatatom 128 60 5 0 0 0 - - -;
#X floatatom 128 179 5 0 0 0 - - -;
#X msg 128 89 \$1 500;
#X obj 128 36 inlet freq;
#X obj 128 237 outlet~;
#X connect 0 0 6 0;
#X connect 1 0 3 0;
#X connect 2 0 4 0;
#X connect 3 0 0 0;
#X connect 4 0 1 0;
#X connect 5 0 2 0;
#X restore 373 361 pd lineOsc;
#N canvas 0 23 450 300 lineOsc 0;
#X obj 128 213 osc~;
#X obj 128 115 line;
#X floatatom 128 60 5 0 0 0 - - -;
#X floatatom 128 179 5 0 0 0 - - -;
#X msg 128 89 \$1 500;
#X obj 128 36 inlet freq;
#X obj 128 237 outlet~;
#X connect 0 0 6 0;
#X connect 1 0 3 0;
#X connect 2 0 4 0;
#X connect 3 0 0 0;
#X connect 4 0 1 0;
#X connect 5 0 2 0;
#X restore 450 361 pd lineOsc;
#N canvas 0 23 450 300 lineOsc 0;
#X obj 128 213 osc~;
#X obj 128 115 line;
#X floatatom 128 60 5 0 0 0 - - -;
#X floatatom 128 179 5 0 0 0 - - -;
#X msg 128 89 \$1 500;
#X obj 128 36 inlet freq;
#X obj 128 237 outlet~;
#X connect 0 0 6 0;
#X connect 1 0 3 0;
#X connect 2 0 4 0;
#X connect 3 0 0 0;
#X connect 4 0 1 0;
#X connect 5 0 2 0;
#X restore 528 361 pd lineOsc;
#N canvas 0 23 450 300 lineOsc 0;
#X obj 128 213 osc~;
#X obj 128 115 line;
#X floatatom 128 60 5 0 0 0 - - -;
#X floatatom 128 179 5 0 0 0 - - -;
#X msg 128 89 \$1 500;
#X obj 128 36 inlet freq;
#X obj 128 237 outlet~;
#X connect 0 0 6 0;
#X connect 1 0 3 0;
#X connect 2 0 4 0;
#X connect 3 0 0 0;
#X connect 4 0 1 0;
#X connect 5 0 2 0;
#X restore 604 361 pd lineOsc;
#N canvas 0 23 450 300 lineOsc 0;
#X obj 128 213 osc~;
#X obj 128 115 line;
#X floatatom 128 60 5 0 0 0 - - -;
#X floatatom 128 179 5 0 0 0 - - -;
#X msg 128 89 \$1 500;
#X obj 128 36 inlet freq;
#X obj 128 237 outlet~;
#X connect 0 0 6 0;
#X connect 1 0 3 0;
#X connect 2 0 4 0;
#X connect 3 0 0 0;
#X connect 4 0 1 0;
#X connect 5 0 2 0;
#X restore 677 361 pd lineOsc;
#N canvas 0 23 450 300 lineOsc 0;
#X obj 128 213 osc~;
#X obj 128 115 line;
#X floatatom 128 60 5 0 0 0 - - -;
#X floatatom 128 179 5 0 0 0 - - -;
#X msg 128 89 \$1 500;
#X obj 128 36 inlet freq;
#X obj 128 237 outlet~;
#X connect 0 0 6 0;
#X connect 1 0 3 0;
#X connect 2 0 4 0;
#X connect 3 0 0 0;
#X connect 4 0 1 0;
#X connect 5 0 2 0;
#X restore 757 361 pd lineOsc;
#N canvas 0 23 450 300 lineOsc 0;
#X obj 128 213 osc~;
#X obj 128 115 line;
#X floatatom 128 60 5 0 0 0 - - -;
#X floatatom 128 179 5 0 0 0 - - -;
#X msg 128 89 \$1 500;
#X obj 128 36 inlet freq;
#X obj 128 237 outlet~;
#X connect 0 0 6 0;
#X connect 1 0 3 0;
#X connect 2 0 4 0;
#X connect 3 0 0 0;
#X connect 4 0 1 0;
#X connect 5 0 2 0;
#X restore 832 361 pd lineOsc;
#N canvas 0 23 450 300 lineOsc 0;
#X obj 128 213 osc~;
#X obj 128 115 line;
#X floatatom 128 60 5 0 0 0 - - -;
#X floatatom 128 179 5 0 0 0 - - -;
#X msg 128 89 \$1 500;
#X obj 128 36 inlet freq;
#X obj 128 237 outlet~;
#X connect 0 0 6 0;
#X connect 1 0 3 0;
#X connect 2 0 4 0;
#X connect 3 0 0 0;
#X connect 4 0 1 0;
#X connect 5 0 2 0;
#X restore 909 361 pd lineOsc;
#N canvas 0 23 450 300 lineOsc 0;
#X obj 128 213 osc~;
#X obj 128 115 line;
#X floatatom 128 60 5 0 0 0 - - -;
#X floatatom 128 179 5 0 0 0 - - -;
#X msg 128 89 \$1 500;
#X obj 128 36 inlet freq;
#X obj 128 237 outlet~;
#X connect 0 0 6 0;
#X connect 1 0 3 0;
#X connect 2 0 4 0;
#X connect 3 0 0 0;
#X connect 4 0 1 0;
#X connect 5 0 2 0;
#X restore 987 361 pd lineOsc;
#N canvas 0 23 450 300 lineOsc 0;
#X obj 128 213 osc~;
#X obj 128 115 line;
#X floatatom 128 60 5 0 0 0 - - -;
#X floatatom 128 179 5 0 0 0 - - -;
#X msg 128 89 \$1 500;
#X obj 128 36 inlet freq;
#X obj 128 237 outlet~;
#X connect 0 0 6 0;
#X connect 1 0 3 0;
#X connect 2 0 4 0;
#X connect 3 0 0 0;
#X connect 4 0 1 0;
#X connect 5 0 2 0;
#X restore 1063 361 pd lineOsc;
#X floatatom 249 342 5 0 0 0 - - -;
#X floatatom 329 343 5 0 0 0 - - -;
#X floatatom 402 343 5 0 0 0 - - -;
#X floatatom 477 343 5 0 0 0 - - -;
#X floatatom 560 344 5 0 0 0 - - -;
#X floatatom 635 343 5 0 0 0 - - -;
#X floatatom 706 343 5 0 0 0 - - -;
#X floatatom 788 343 5 0 0 0 - - -;
#X floatatom 862 343 5 0 0 0 - - -;
#X floatatom 939 343 5 0 0 0 - - -;
#X floatatom 1018 341 5 0 0 0 - - -;
#X floatatom 1094 343 5 0 0 0 - - -;
#X obj 248 279 mrpeach/routeOSC /0 /1 /2 /3 /4 /5 /6 /7 /8 /9 /10 /11
, f 151;
#X obj 328 385 tgl 15 0 empty empty empty 17 7 0 10 -262144 -1 -1 1
1;
#X obj 298 400 *~;
#X obj 248 384 tgl 15 0 empty empty empty 17 7 0 10 -262144 -1 -1 1
1;
#X obj 218 399 *~;
#X obj 484 384 tgl 15 0 empty empty empty 17 7 0 10 -262144 -1 -1 1
1;
#X obj 454 399 *~;
#X obj 404 383 tgl 15 0 empty empty empty 17 7 0 10 -262144 -1 -1 1
1;
#X obj 374 398 *~;
#X obj 638 384 tgl 15 0 empty empty empty 17 7 0 10 -262144 -1 -1 1
1;
#X obj 608 399 *~;
#X obj 558 383 tgl 15 0 empty empty empty 17 7 0 10 -262144 -1 -1 1
1;
#X obj 528 398 *~;
#X obj 795 386 tgl 15 0 empty empty empty 17 7 0 10 -262144 -1 -1 1
1;
#X obj 765 401 *~;
#X obj 715 385 tgl 15 0 empty empty empty 17 7 0 10 -262144 -1 -1 1
1;
#X obj 685 400 *~;
#X obj 951 385 tgl 15 0 empty empty empty 17 7 0 10 -262144 -1 -1 1
1;
#X obj 921 400 *~;
#X obj 871 384 tgl 15 0 empty empty empty 17 7 0 10 -262144 -1 -1 1
1;
#X obj 841 399 *~;
#X obj 1105 385 tgl 15 0 empty empty empty 17 7 0 10 -262144 -1 -1
1 1;
#X obj 1075 400 *~;
#X obj 1025 384 tgl 15 0 empty empty empty 17 7 0 10 -262144 -1 -1
1 1;
#X obj 995 399 *~;
#X connect 0 0 2 0;
#X connect 0 0 10 0;
#X connect 2 0 1 0;
#X connect 3 0 2 1;
#X connect 8 0 0 1;
#X connect 9 0 8 0;
#X connect 10 0 13 0;
#X connect 12 0 0 1;
#X connect 13 0 38 0;
#X connect 14 0 42 0;
#X connect 15 0 40 0;
#X connect 16 0 46 0;
#X connect 17 0 44 0;
#X connect 18 0 50 0;
#X connect 19 0 48 0;
#X connect 20 0 54 0;
#X connect 21 0 52 0;
#X connect 22 0 58 0;
#X connect 23 0 56 0;
#X connect 24 0 62 0;
#X connect 25 0 60 0;
#X connect 38 0 14 0;
#X connect 38 0 26 0;
#X connect 38 1 15 0;
#X connect 38 1 27 0;
#X connect 38 2 16 0;
#X connect 38 2 28 0;
#X connect 38 3 17 0;
#X connect 38 3 29 0;
#X connect 38 4 18 0;
#X connect 38 4 30 0;
#X connect 38 5 19 0;
#X connect 38 5 31 0;
#X connect 38 6 20 0;
#X connect 38 6 32 0;
#X connect 38 7 21 0;
#X connect 38 7 33 0;
#X connect 38 8 22 0;
#X connect 38 8 34 0;
#X connect 38 9 23 0;
#X connect 38 9 35 0;
#X connect 38 10 24 0;
#X connect 38 10 36 0;
#X connect 38 11 25 0;
#X connect 38 11 37 0;
#X connect 39 0 40 1;
#X connect 40 0 11 1;
#X connect 41 0 42 1;
#X connect 42 0 11 0;
#X connect 43 0 44 1;
#X connect 44 0 11 1;
#X connect 45 0 46 1;
#X connect 46 0 11 0;
#X connect 47 0 48 1;
#X connect 48 0 11 1;
#X connect 49 0 50 1;
#X connect 50 0 11 0;
#X connect 51 0 52 1;
#X connect 52 0 11 1;
#X connect 53 0 54 1;
#X connect 54 0 11 0;
#X connect 55 0 56 1;
#X connect 56 0 11 1;
#X connect 57 0 58 1;
#X connect 58 0 11 0;
#X connect 59 0 60 1;
#X connect 60 0 11 1;
#X connect 61 0 62 1;
#X connect 62 0 11 0;
